# xmcd
#
# Track frame offsets:
#	150
#	10015
#	19181
#	29791
#	41289
#	49996
#	59135
#	71063
#	84545
#	96175
#	105166
#	117480
#	127931
#	136991
#	150564
#	161356
#	173105
#	187623
#	199465
#	207827
#	221110
#	234072
#	248406
#	262925
#	275640
#	287544
#	298058
#
# Disc length: 4174 seconds
#
# Revision: 0
# Processed by: cddbd v1.5.2PL0 Copyright (c) Steve Scherf et al.
# Submitted via: EZCDAudioConverter 2.1.7.1
#
DISCID=7d104c1b
DTITLE=Henry Mancini - Classic Soundtrack Collection
DYEAR=1900
DGENRE=
TTITLE0=The Swing March
TTITLE1=Tarantella Mozzarella
TTITLE2=Gina
TTITLE3=In The Arms Of Love [Instrumental]
TTITLE4=The Girls Up-A-Stairs
TTITLE5=Sicily Forever
TTITLE6=In The Arms Of Love [Vocal]
TTITLE7=Echoes Of Sicily
TTITLE8=Buon Giorno (Good Morning)
TTITLE9=Wine And Women
TTITLE10=A Tavern In Valerno
TTITLE11=The Tender Thieves
TTITLE12=Festa!
TTITLE13=In The Arms Of Love
TTITLE14=High Time
TTITLE15=Moon Talk
TTITLE16=So Neat
TTITLE17=The Old College Try Cha-Cha
TTITLE18=The Nutty Professor
TTITLE19=Frish Frosh
TTITLE20=The Second Time Around
TTITLE21=A Mild Blast
TTITLE22=Harv's Blues
TTITLE23=New Blood
TTITLE24=The Dean Speaks
TTITLE25=Tiger!
TTITLE26=The Second Time Around
EXTD=
EXTT0=
EXTT1=
EXTT2=
EXTT3=
EXTT4=
EXTT5=
EXTT6=
EXTT7=
EXTT8=
EXTT9=
EXTT10=
EXTT11=
EXTT12=
EXTT13=
EXTT14=
EXTT15=
EXTT16=
EXTT17=
EXTT18=
EXTT19=
EXTT20=
EXTT21=
EXTT22=
EXTT23=
EXTT24=
EXTT25=
EXTT26=
PLAYORDER=
